<svg xmlns="http://www.w3.org/2000/svg" width="31.896" height="22.103" viewBox="0 0 31.896 22.103">
  <path id="_SITE_ATL_Logo" data-name="[SITE] ATL Logo" d="M502,5588.948v22.1h31.9v-22.1Zm7.771,10.468,4.782-9.106v9.106Zm4.782,3.7v1.289h-7.4l.677-1.289Zm-11.589-13.2h7.4l-7.4,14.091Zm29.966,20.174H502.966v-4.719h29.966Zm0-13.836a6.442,6.442,0,0,0-.6-1.973,4.281,4.281,0,0,0-4.5-2.325,4.35,4.35,0,0,0-3.707,4.1,4.32,4.32,0,0,1,4.53-1.048,4.807,4.807,0,0,1,2.68,6.214,5.826,5.826,0,0,1-.861,1.482,7.235,7.235,0,0,0,2.292-3.654,8.14,8.14,0,0,0,.174-.923v6.282H526.58a6.442,6.442,0,0,0,1.964-.6,4.274,4.274,0,0,0,2.326-4.5,4.349,4.349,0,0,0-4.1-3.7,4.312,4.312,0,0,1,1.048,4.527,4.812,4.812,0,0,1-6.218,2.679,5.863,5.863,0,0,1-1.484-.863,7.252,7.252,0,0,0,3.658,2.293,7.937,7.937,0,0,0,.911.171h-6.253v-6.224a6.465,6.465,0,0,0,.583,1.837,4.275,4.275,0,0,0,4.506,2.323,4.348,4.348,0,0,0,3.705-4.1,4.313,4.313,0,0,1-4.53,1.047,4.805,4.805,0,0,1-2.679-6.211,5.822,5.822,0,0,1,.863-1.484,7.257,7.257,0,0,0-2.3,3.655c-.062.254-.114.514-.152.775v-6.111h6.21a6.431,6.431,0,0,0-1.839.582,4.279,4.279,0,0,0-2.327,4.5,4.351,4.351,0,0,0,4.1,3.7,4.312,4.312,0,0,1-1.049-4.528,4.811,4.811,0,0,1,6.217-2.678,5.8,5.8,0,0,1,1.484.862,7.261,7.261,0,0,0-3.658-2.293c-.254-.062-.514-.114-.778-.151h6.137Zm-6.3,1.855a1.355,1.355,0,1,0-1.917,0A1.352,1.352,0,0,0,526.632,5598.106Zm-18.117,11.019h.863v-2.114h1.214v-.7H507.3v.7h1.213Zm5.4-.724h-1.94v-2.089h-.863v2.813h2.8Zm5.735-1.32h.009l1.621,2.044h1.337v-2.812h-.864v2.043h-.007l-1.622-2.043h-1.338v2.813h.863Zm4.7,2.044h.862v-2.114h1.213v-.7h-3.288v.7h1.214Zm3.5-2.812h-.864v2.813h.864Zm1.948,2.866a7.2,7.2,0,0,0,1.391,0c.744-.044,1.039-.372,1.039-.847v-.264h-.864c0,.349-.2.367-.5.389a5.22,5.22,0,0,1-.922,0c-.381-.034-.493-.156-.493-.564v-.368c0-.446.117-.527.54-.565a4.744,4.744,0,0,1,.942,0c.208.03.4.059.4.262v.077h.863c.008-.8-.317-1.009-1.381-1.06a7.178,7.178,0,0,0-1.015,0c-.493.024-1.2.119-1.24,1.018-.017.4-.01.466,0,.9C528.575,5609.057,529.247,5609.138,529.795,5609.179Zm-14.43-.551h1.77l.251.5h.96l-1.483-2.812H515.61l-1.46,2.813h.975Zm.793-1.641h.153l.519,1.036h-1.17Zm-11.52,1.641h1.772l.249.5h.961l-1.484-2.812h-1.253l-1.459,2.813h.972Zm.795-1.641h.152l.521,1.036h-1.171Z" transform="translate(-502.001 -5588.948)" fill="#fff"/>
</svg>
